<svg width="760" height="160" viewBox="0 0 760 160" fill="none" xmlns="http://www.w3.org/2000/svg">
<path d="M158.761 71.1006C165.022 100.284 146.76 135.906 118.925 150.173C68.7591 175.877 13.0737 149.145 1.51397 93.8307C-7.96406 48.418 28.1187 2.02464 74.4522 0.0948827C112.68 -1.50271 144.063 18.9496 155.638 52.6097C157.263 57.3076 156.553 59.7909 152.279 62.1003C142.391 67.4783 132.125 71.1164 120.691 69.9775C115.992 69.5188 112.664 67.7789 110.772 62.6065C103.202 41.8536 80.2557 32.8217 58.6818 41.648C39.0476 49.6676 30.1688 71.496 38.4168 91.5055C48.841 116.814 76.802 127.981 105.126 117.968C126.526 110.392 142.58 96.1559 154.739 77.1904C155.938 75.3239 157.2 73.4891 158.792 71.1164L158.761 71.1006Z" fill="white"/>
<path d="M706.282 121.6C701.075 121.6 696.418 120.427 692.312 118.08C688.205 115.733 684.942 112.507 682.522 108.4C680.175 104.293 679.002 99.6733 679.002 94.54C679.002 89.48 680.175 84.9334 682.522 80.9C684.868 76.7934 688.058 73.5667 692.092 71.22C696.125 68.8733 700.635 67.7 705.622 67.7C710.315 67.7 714.458 68.7633 718.052 70.89C721.718 73.0167 724.578 75.9867 726.632 79.8C728.758 83.54 729.822 87.8667 729.822 92.78C729.822 93.3667 729.785 94.0633 729.712 94.87C729.638 95.6033 729.492 96.4834 729.272 97.51H684.502V90.91H725.092L722.342 93.33C722.415 89.5167 721.755 86.2533 720.362 83.54C719.042 80.7534 717.098 78.6267 714.532 77.16C712.038 75.62 708.995 74.85 705.402 74.85C701.662 74.85 698.398 75.6567 695.612 77.27C692.825 78.8833 690.625 81.1567 689.012 84.09C687.472 86.95 686.702 90.36 686.702 94.32C686.702 98.28 687.508 101.763 689.122 104.77C690.808 107.777 693.118 110.123 696.052 111.81C699.058 113.497 702.505 114.34 706.392 114.34C709.545 114.34 712.442 113.79 715.082 112.69C717.722 111.517 719.958 109.793 721.792 107.52L726.742 112.58C724.322 115.44 721.315 117.677 717.722 119.29C714.202 120.83 710.388 121.6 706.282 121.6Z" fill="white"/>
<path d="M650.418 120.5L626.548 68.8H635.128L655.258 114.01H650.418L670.658 68.8H679.018L654.928 120.5H650.418Z" fill="white"/>
<path d="M594.473 121.6C589.559 121.6 585.159 120.427 581.273 118.08C577.386 115.66 574.306 112.433 572.033 108.4C569.833 104.367 568.733 99.82 568.733 94.76C568.733 89.6267 569.833 85.0433 572.033 81.01C574.306 76.9033 577.386 73.6767 581.273 71.33C585.159 68.91 589.523 67.7 594.363 67.7C598.323 67.7 601.843 68.5067 604.923 70.12C608.076 71.66 610.606 73.86 612.513 76.72C614.493 79.5067 615.703 82.77 616.143 86.51V102.68C615.703 106.42 614.493 109.72 612.513 112.58C610.606 115.44 608.076 117.677 604.923 119.29C601.843 120.83 598.359 121.6 594.473 121.6ZM595.683 114.23C601.036 114.23 605.326 112.433 608.553 108.84C611.853 105.247 613.503 100.517 613.503 94.65C613.503 90.7634 612.733 87.3533 611.193 84.42C609.726 81.4133 607.636 79.1033 604.923 77.49C602.283 75.8033 599.166 74.96 595.573 74.96C591.906 74.96 588.643 75.8033 585.783 77.49C582.996 79.1767 580.759 81.5233 579.073 84.53C577.459 87.4633 576.653 90.8367 576.653 94.65C576.653 98.4634 577.459 101.837 579.073 104.77C580.759 107.703 583.033 110.013 585.893 111.7C588.753 113.387 592.016 114.23 595.683 114.23ZM613.063 120.5V106.64L614.603 93.88L613.063 81.45V68.8H620.763V120.5H613.063Z" fill="white"/>
<path d="M510.091 120.5L490.181 68.8H498.211L513.941 111.7L511.081 111.81L526.701 68.8H531.211L546.831 111.81L543.971 111.7L559.591 68.8H567.731L547.711 120.5H543.201L527.251 78.15H530.551L514.711 120.5H510.091Z" fill="white"/>
<path d="M452.023 121.6C447.11 121.6 442.71 120.39 438.823 117.97C434.936 115.55 431.856 112.25 429.583 108.07C427.383 103.89 426.283 99.1967 426.283 93.99C426.283 88.71 427.383 83.98 429.583 79.8C431.856 75.62 434.9 72.32 438.713 69.9C442.6 67.48 447.036 66.27 452.023 66.27C455.836 66.27 459.246 67.04 462.253 68.58C465.333 70.12 467.79 72.2833 469.623 75.07C471.53 77.7833 472.556 80.8633 472.703 84.31V103.23C472.556 106.677 471.566 109.793 469.733 112.58C467.9 115.367 465.443 117.567 462.363 119.18C459.283 120.793 455.836 121.6 452.023 121.6ZM454.443 108.29C457.156 108.29 459.503 107.703 461.483 106.53C463.536 105.283 465.113 103.597 466.213 101.47C467.386 99.27 467.973 96.74 467.973 93.88C467.973 91.0933 467.386 88.6367 466.213 86.51C465.113 84.31 463.536 82.6233 461.483 81.45C459.503 80.2033 457.193 79.58 454.553 79.58C451.84 79.58 449.456 80.2033 447.403 81.45C445.423 82.6967 443.846 84.3833 442.673 86.51C441.573 88.6367 441.023 91.0933 441.023 93.88C441.023 96.74 441.573 99.27 442.673 101.47C443.846 103.597 445.46 105.283 447.513 106.53C449.566 107.703 451.876 108.29 454.443 108.29ZM481.503 120.5H467.203V106.2L469.513 93.22L467.093 80.46V40.97H481.503V120.5Z" fill="white"/>
<path d="M363.414 120.5L343.504 67.37H358.024L371.004 105.98L366.604 106.09L379.914 67.37H390.364L403.674 106.09L399.274 105.98L412.254 67.37H426.774L406.974 120.5H396.524L383.104 83.76H387.174L373.754 120.5H363.414Z" fill="white"/>
<path d="M315.748 121.6C310.395 121.6 305.555 120.39 301.228 117.97C296.975 115.477 293.565 112.14 290.998 107.96C288.505 103.707 287.258 98.9767 287.258 93.77C287.258 88.5633 288.505 83.9067 290.998 79.8C293.492 75.62 296.902 72.32 301.228 69.9C305.555 67.4067 310.358 66.16 315.638 66.16C321.065 66.16 325.905 67.4067 330.158 69.9C334.485 72.32 337.895 75.62 340.388 79.8C342.882 83.9067 344.128 88.5633 344.128 93.77C344.128 98.9767 342.882 103.707 340.388 107.96C337.895 112.14 334.485 115.477 330.158 117.97C325.905 120.39 321.102 121.6 315.748 121.6ZM315.638 108.18C318.352 108.18 320.735 107.593 322.788 106.42C324.915 105.173 326.528 103.487 327.628 101.36C328.802 99.16 329.388 96.6667 329.388 93.88C329.388 91.0933 328.802 88.6367 327.628 86.51C326.455 84.3833 324.842 82.7333 322.788 81.56C320.735 80.3133 318.352 79.69 315.638 79.69C312.998 79.69 310.652 80.3133 308.598 81.56C306.545 82.7333 304.932 84.3833 303.758 86.51C302.585 88.6367 301.998 91.0933 301.998 93.88C301.998 96.6667 302.585 99.16 303.758 101.36C304.932 103.487 306.545 105.173 308.598 106.42C310.652 107.593 312.998 108.18 315.638 108.18Z" fill="white"/>
<path d="M248.521 120.5V67.37H262.931V120.5H248.521ZM262.931 91.13L257.321 87.39C257.981 80.8633 259.887 75.73 263.041 71.99C266.194 68.1767 270.741 66.27 276.681 66.27C279.247 66.27 281.557 66.71 283.611 67.59C285.664 68.3967 287.534 69.7533 289.221 71.66L280.201 82C279.394 81.12 278.404 80.46 277.231 80.02C276.131 79.58 274.847 79.36 273.381 79.36C270.301 79.36 267.771 80.35 265.791 82.33C263.884 84.2367 262.931 87.17 262.931 91.13Z" fill="white"/>
<path d="M219.46 121.6C214.033 121.6 209.157 120.39 204.83 117.97C200.503 115.55 197.093 112.25 194.6 108.07C192.107 103.89 190.86 99.1967 190.86 93.99C190.86 88.71 192.107 83.98 194.6 79.8C197.093 75.62 200.503 72.32 204.83 69.9C209.23 67.4067 214.107 66.16 219.46 66.16C223.64 66.16 227.49 66.93 231.01 68.47C234.53 70.01 237.573 72.21 240.14 75.07L230.9 84.42C229.507 82.88 227.82 81.7067 225.84 80.9C223.933 80.0933 221.807 79.69 219.46 79.69C216.82 79.69 214.437 80.3133 212.31 81.56C210.257 82.7333 208.607 84.3833 207.36 86.51C206.187 88.5633 205.6 91.02 205.6 93.88C205.6 96.6667 206.187 99.16 207.36 101.36C208.607 103.487 210.257 105.173 212.31 106.42C214.437 107.593 216.82 108.18 219.46 108.18C221.88 108.18 224.043 107.777 225.95 106.97C227.93 106.09 229.617 104.843 231.01 103.23L240.36 112.58C237.647 115.513 234.53 117.75 231.01 119.29C227.49 120.83 223.64 121.6 219.46 121.6Z" fill="white"/>
<path d="M748.6 65.2664H745.724V50.5H750.213L752.897 62.1107L755.562 50.5H760V65.2664H757.125V55.2785C757.125 54.9914 757.128 54.5906 757.135 54.0764C757.142 53.5555 757.145 53.1547 757.145 52.8742L754.35 65.2664H751.355L748.58 52.8742C748.58 53.1547 748.583 53.5555 748.59 54.0764C748.596 54.5906 748.6 54.9914 748.6 55.2785V65.2664Z" fill="white"/>
<path d="M743.961 50.5V53.1147H739.543V65.2664H736.438V53.1147H732V50.5H743.961Z" fill="white"/>
</svg>
